HIERARCHY
ROOT Hips
{
 OFFSET 0.000000 0.000000 0.000000
 CHANNELS 6 Xposition Yposition Zposition Yrotation Xrotation Zrotation
 JOINT Chest
 {
  OFFSET 0.000000 9.585900 0.002600
  CHANNELS 3 Yrotation Xrotation Zrotation
  JOINT Chest2
  {
   OFFSET 0.000000 9.601200 -0.005300
   CHANNELS 3 Yrotation Xrotation Zrotation
   JOINT Chest3
   {
    OFFSET 0.000000 9.561800 0.000000
    CHANNELS 3 Yrotation Xrotation Zrotation
    JOINT Chest4
    {
     OFFSET 0.000000 9.552100 0.000000
     CHANNELS 3 Yrotation Xrotation Zrotation
     JOINT Neck
     {
      OFFSET 0.000000 14.453000 0.000000
      CHANNELS 3 Yrotation Xrotation Zrotation
      JOINT Head
      {
       OFFSET 0.000000 8.936500 -0.011300
       CHANNELS 3 Yrotation Xrotation Zrotation
       End Site
       {
        OFFSET 0.000000 17.073600 -0.006000
       }
      }
     }
     JOINT RightCollar
     {
      OFFSET -2.921100 9.558500 0.000000
      CHANNELS 3 Yrotation Xrotation Zrotation
      JOINT RightShoulder
      {
       OFFSET -13.519700 0.000000 0.000000
       CHANNELS 3 Yrotation Xrotation Zrotation
       JOINT RightElbow
       {
        OFFSET 0.000000 -29.696600 0.000000
        CHANNELS 3 Yrotation Xrotation Zrotation
        JOINT RightWrist
        {
         OFFSET 0.000000 -24.004700 0.000000
         CHANNELS 3 Yrotation Xrotation Zrotation
         End Site
         {
          OFFSET 0.000000 -17.728500 0.000000
         }
        }
       }
      }
     }
     JOINT LeftCollar
     {
      OFFSET 2.921100 9.558500 0.000000
      CHANNELS 3 Yrotation Xrotation Zrotation
      JOINT LeftShoulder
      {
       OFFSET 13.519700 0.000000 0.000000
       CHANNELS 3 Yrotation Xrotation Zrotation
       JOINT LeftElbow
       {
        OFFSET 0.000000 -29.696600 0.000000
        CHANNELS 3 Yrotation Xrotation Zrotation
        JOINT LeftWrist
        {
         OFFSET 0.000000 -24.004700 0.000000
         CHANNELS 3 Yrotation Xrotation Zrotation
         End Site
         {
          OFFSET 0.000000 -17.728500 0.000000
         }
        }
       }
      }
     }
    }
   }
  }
 }
 JOINT RightHip
 {
  OFFSET -7.771700 -0.012900 -0.001300
  CHANNELS 3 Yrotation Xrotation Zrotation
  JOINT RightKnee
  {
   OFFSET 0.000000 -40.869800 0.001200
   CHANNELS 3 Yrotation Xrotation Zrotation
   JOINT RightAnkle
   {
    OFFSET 0.000000 -39.717900 0.002100
    CHANNELS 3 Yrotation Xrotation Zrotation
    JOINT RightToe
    {
     OFFSET 0.000000 -4.965400 11.033500
     CHANNELS 3 Yrotation Xrotation Zrotation
     End Site
     {
      OFFSET 0.000000 -1.423100 5.872300
     }
    }
   }
  }
 }
 JOINT LeftHip
 {
  OFFSET 7.771700 -0.012900 -0.001300
  CHANNELS 3 Yrotation Xrotation Zrotation
  JOINT LeftKnee
  {
   OFFSET 0.000000 -40.869800 0.001200
   CHANNELS 3 Yrotation Xrotation Zrotation
   JOINT LeftAnkle
   {
    OFFSET 0.000000 -39.717900 0.002100
    CHANNELS 3 Yrotation Xrotation Zrotation
    JOINT LeftToe
    {
     OFFSET 0.000000 -4.965400 11.033500
     CHANNELS 3 Yrotation Xrotation Zrotation
     End Site
     {
      OFFSET 0.000000 -1.423100 5.872300
     }
    }
   }
  }
 }
}
MOTION
Frames: 6
Frame Time: 0.008333
0.000000 85.388000 0.000000 0.000000 -5.767877 0.000000 0.000000 11.653817 0.000000 0.000000 -5.885947 0.000000 0.000000 -0.000000 0.000000 0.000000 -0.000000 0.000000 0.000000 12.528835 0.000000 0.000000 0.711642 0.000000 0.000000 -0.000000 0.000000 0.000000 0.000000 -90.000000 0.000000 -2.309062 0.000000 0.000000 2.309062 0.000000 0.000000 -0.000000 0.000000 0.000000 -0.000000 90.000000 0.000000 -2.309062 0.000000 0.000000 2.309062 0.000000 0.000000 8.520406 0.000000 0.000000 1.905762 0.000000 -0.000000 -4.658285 0.000000 0.000000 -0.000000 0.000000 0.000000 8.520406 0.000000 0.000000 1.905762 0.000000 -0.000000 -4.658285 0.000000 0.000000 -0.000000 0.000000
-52.554320 43.872369 22.056311 173.901602 -24.223157 -0.448818 -0.644757 17.731291 2.941204 -0.127822 2.015543 0.384538 -0.227996 3.268532 0.651998 -0.693349 15.583065 2.978387 -1.556283 17.177591 -6.445435 -0.187287 -7.472594 -6.574489 14.183376 0.237334 -5.732710 -9.135668 -22.051847 -24.213025 -130.568299 -47.965776 162.136621 -8.260263 2.241158 -4.877626 -14.449425 -1.292935 -5.154416 17.192541 -11.654150 6.623875 119.376920 -43.262786 -160.621803 19.031228 -1.403278 -1.612676 -2.553726 -67.181888 12.543073 -147.810018 66.049852 -146.650750 -12.157298 -27.759184 9.585122 0.208284 -0.812436 0.084807 3.143834 -55.069059 -1.738639 172.354546 61.208409 173.162046 -1.065843 -39.608029 1.170040 0.143761 0.330588 0.060112
-52.556973 43.873116 22.055062 173.905975 -24.204381 -0.463716 -0.612166 17.778261 2.950372 -0.151788 1.957620 0.397358 -0.194809 3.327080 0.635968 -0.707620 15.532756 2.994096 -1.661846 17.113420 -6.433207 -0.319860 -7.562582 -6.519870 14.141435 0.299383 -5.794741 -8.883543 -22.294524 -24.439594 -130.008366 -47.908272 161.713647 -8.384631 2.301440 -4.189548 -14.447992 -1.295060 -5.137062 17.001513 -11.991538 6.784151 119.050817 -43.308358 -160.331190 19.179305 -1.389340 -2.078422 -2.576824 -67.195646 12.555904 -147.834062 66.051329 -146.666277 -12.152982 -27.763556 9.583622 0.209165 -0.805666 0.085406 3.120748 -55.088631 -1.717476 172.359562 61.202095 173.165610 -1.069582 -39.619030 1.176396 0.149239 0.334306 0.058594
-52.562379 43.875139 22.051279 173.917546 -24.200744 -0.472056 -0.611868 17.789438 2.954087 -0.141302 1.973796 0.392314 -0.196435 3.318446 0.639150 -0.678067 15.550759 2.990434 -1.807078 17.022751 -6.403742 -0.474086 -7.654274 -6.461133 14.082965 0.336881 -5.863670 -8.605127 -22.606475 -24.762417 -129.342662 -47.878672 161.116273 -8.512015 2.352857 -3.212406 -14.422187 -1.298963 -5.085550 16.745265 -12.420157 6.967146 118.705889 -43.410971 -159.952713 19.361605 -1.414559 -2.679908 -2.579871 -67.193747 12.538845 -147.875008 66.053404 -146.696963 -12.164957 -27.769170 9.586207 0.214931 -0.801765 0.088788 3.113517 -55.091856 -1.728783 172.340085 61.197245 173.150731 -1.060768 -39.622262 1.174984 0.146619 0.332097 0.054541
-52.570175 43.875859 22.051198 173.920903 -24.176080 -0.474038 -0.605072 17.778962 2.955673 -0.117602 2.009971 0.391652 -0.222482 3.274941 0.641794 -0.644456 15.585385 2.991357 -1.969373 16.935532 -6.377412 -0.645847 -7.741909 -6.401624 14.046751 0.368620 -5.959603 -8.395255 -23.086495 -25.118595 -128.481032 -47.965325 160.303708 -8.635692 2.377989 -1.790250 -14.393570 -1.298637 -5.010351 16.491333 -12.938741 7.165409 118.379768 -43.578500 -159.489648 19.601520 -1.477588 -3.458812 -2.536503 -67.207174 12.470901 -147.936332 66.074033 -146.739599 -12.150740 -27.800495 9.591193 0.182805 -0.774792 0.078102 3.119599 -55.116486 -1.749287 172.314392 61.194266 173.129025 -1.056106 -39.630281 1.175742 0.145825 0.336220 0.052477
-52.576284 43.877280 22.051163 173.920886 -24.161429 -0.494131 -0.580487 17.790604 2.985297 -0.129293 1.990169 0.389618 -0.207031 3.298923 0.643738 -0.645230 15.584793 3.001273 -2.137437 16.868726 -6.360590 -0.830135 -7.815481 -6.344171 14.048619 0.404184 -6.087485 -8.343094 -23.854224 -25.398311 -127.319039 -48.300039 159.239462 -8.742772 2.339276 0.240106 -14.413085 -1.279180 -4.952816 16.326652 -13.584276 7.400296 118.079199 -43.825405 -158.925210 19.908041 -1.560520 -4.467860 -2.473419 -67.190485 12.367066 -148.042733 66.125850 -146.805400 -12.081590 -27.938810 9.600902 0.089657 -0.658199 0.036148 3.096600 -55.130892 -1.732000 172.301172 61.190322 173.120114 -1.027499 -39.619160 1.165500 0.132530 0.316050 0.050346
